<svg xmlns="http://www.w3.org/2000/svg" viewBox="0 0 900 900" role="img" aria-labelledby="title desc">
  <title id="title">BV SKINCARE logo</title>
  <desc id="desc">Red square logo with a white circle, BV letters, beauty tools, and skincare text.</desc>
  <rect width="900" height="900" fill="#e31b23"/>
  <circle cx="450" cy="315" r="210" fill="#fff"/>
  <text x="345" y="270" fill="#e31b23" font-family="Georgia, Times New Roman, serif" font-size="138" letter-spacing="0">BV</text>
  <line x1="453" y1="162" x2="453" y2="310" stroke="#e31b23" stroke-width="8" stroke-linecap="round"/>
  <g fill="none" stroke="#e31b23" stroke-width="10" stroke-linecap="round" stroke-linejoin="round">
    <path d="M230 410l55-28 34 91"/>
    <path d="M253 390l-42-60"/>
    <path d="M355 384h74v90h-74z"/>
    <path d="M377 384l15-112 58 34-21 78"/>
    <circle cx="526" cy="404" r="72"/>
    <circle cx="526" cy="404" r="43"/>
    <path d="M503 431l46-52"/>
    <path d="M536 434l44-50"/>
    <path d="M650 302c52-8 86 10 95 42l-52 134h-93z"/>
    <path d="M606 478l26-80h87"/>
  </g>
  <path d="M348 527c58 22 151 22 209 0" fill="none" stroke="#e31b23" stroke-width="9" stroke-linecap="round"/>
  <text x="450" y="707" text-anchor="middle" fill="#fff" font-family="Georgia, Times New Roman, serif" font-size="112" font-weight="700" letter-spacing="0">Skincare</text>
  <text x="450" y="802" text-anchor="middle" fill="#fff" font-family="Arial, Helvetica, sans-serif" font-size="66" font-weight="700" letter-spacing="0">BV SKINCARE</text>
</svg>
