<?xml version="1.0" encoding="UTF-8"?>
<svg xmlns="http://www.w3.org/2000/svg" xmlns:xlink="http://www.w3.org/1999/xlink" width="860.336pt" height="222.952pt" viewBox="141.829 319.909 860.336 222.952">
<defs>
<clipPath id="clip-0">
<path clip-rule="nonzero" d="M 0 0.105469 L 1190.101562 0.105469 L 1190.101562 841.675781 L 0 841.675781 Z M 0 0.105469 "/>
</clipPath>
<clipPath id="clip-1">
<path clip-rule="nonzero" d="M 395 332 L 697 332 L 697 427 L 395 427 Z M 395 332 "/>
</clipPath>
<clipPath id="clip-2">
<path clip-rule="evenodd" d="M 442.585938 332.039062 L 942.992188 332.039062 C 968.851562 332.039062 990.007812 353.195312 990.007812 379.054688 C 990.007812 404.914062 968.851562 426.074219 942.992188 426.074219 L 442.585938 426.074219 C 416.726562 426.074219 395.570312 404.914062 395.570312 379.054688 C 395.570312 353.195312 416.726562 332.039062 442.585938 332.039062 "/>
</clipPath>
</defs>
<g clip-path="url(#clip-0)">
<path fill="none" stroke-width="0.216" stroke-linecap="butt" stroke-linejoin="miter" stroke="rgb(13.729858%, 12.159729%, 12.548828%)" stroke-opacity="1" stroke-miterlimit="2.613126" d="M 0 841.887874 L 1190.550193 841.887874 L 1190.550193 0.000316567 L 0 0.000316567 Z M 0 841.887874 " transform="matrix(0.999623, 0, 0, -0.999623, 0, 841.676098)"/>
</g>
<path fill-rule="evenodd" fill="rgb(62.745667%, 7.687378%, 55.839539%)" fill-opacity="1" d="M 212.292969 371.992188 L 226.484375 423.691406 C 227.75 428.296875 222.847656 433.628906 215.59375 435.535156 L 153.820312 451.765625 L 158.175781 467.628906 L 234.980469 447.449219 C 245.960938 444.5625 253.378906 436.496094 251.46875 429.523438 L 234.101562 366.261719 Z M 212.292969 371.992188 "/>
<path fill-rule="evenodd" fill="rgb(62.745667%, 7.687378%, 55.839539%)" fill-opacity="1" d="M 256.652344 531.09375 L 242.460938 479.394531 C 241.195312 474.789062 234.222656 472.578125 226.96875 474.484375 L 165.199219 490.71875 L 160.84375 474.855469 L 237.648438 454.671875 C 248.632812 451.785156 259.183594 455.128906 261.097656 462.101562 L 278.464844 525.359375 Z M 256.652344 531.09375 "/>
<path fill-rule="evenodd" fill="rgb(60.00061%, 82.978821%, 12.547302%)" fill-opacity="1" d="M 278.53125 374.34375 L 319.328125 363.621094 L 329.410156 400.367188 L 288.617188 411.089844 Z M 308.167969 456.488281 L 346.984375 446.289062 C 351.363281 445.136719 355.734375 447.195312 356.699219 450.859375 L 358.363281 457.195312 L 350.398438 459.285156 L 349.976562 457.679688 C 349.292969 455.078125 346.195312 453.621094 343.089844 454.4375 L 315.566406 461.667969 C 312.460938 462.484375 310.476562 465.28125 311.160156 467.878906 L 317.214844 490.917969 C 317.898438 493.515625 321 494.976562 324.105469 494.160156 L 351.628906 486.929688 C 354.730469 486.113281 356.714844 483.316406 356.03125 480.71875 L 354.558594 475.109375 L 334.164062 480.46875 L 332.414062 473.804688 L 360.769531 466.355469 L 361.644531 469.6875 L 362.519531 473.015625 L 365.234375 483.351562 C 366.199219 487.015625 363.402344 490.957031 359.023438 492.109375 L 320.207031 502.308594 C 315.832031 503.457031 311.460938 501.402344 310.496094 497.734375 L 301.957031 465.246094 C 300.996094 461.578125 303.789062 457.640625 308.167969 456.488281 Z M 261.167969 359.148438 L 326.585938 341.960938 C 334.6875 339.832031 342.535156 342.511719 344.019531 347.921875 L 358.535156 400.804688 C 360.015625 406.203125 354.613281 412.359375 346.527344 414.484375 L 294.914062 428.046875 L 298.8125 442.25 L 350.394531 428.695312 C 358.496094 426.566406 366.34375 429.25 367.828125 434.660156 L 382.34375 487.542969 C 383.824219 492.9375 378.421875 499.09375 370.335938 501.21875 L 304.917969 518.410156 C 296.816406 520.539062 288.96875 517.855469 287.484375 512.445312 L 270.273438 449.75 L 270.289062 449.746094 L 266.390625 435.542969 L 266.375 435.546875 L 249.160156 372.828125 C 247.679688 367.429688 253.082031 361.273438 261.167969 359.148438 "/>
<path fill-rule="evenodd" fill="rgb(60.00061%, 82.978821%, 12.547302%)" fill-opacity="1" d="M 442.585938 332.039062 L 942.992188 332.039062 C 968.851562 332.039062 990.007812 353.195312 990.007812 379.054688 C 990.007812 404.914062 968.851562 426.074219 942.992188 426.074219 L 442.585938 426.074219 C 416.726562 426.074219 395.570312 404.914062 395.570312 379.054688 C 395.570312 353.195312 416.726562 332.039062 442.585938 332.039062 "/>
<g clip-path="url(#clip-1)">
<g clip-path="url(#clip-2)">
<path fill-rule="evenodd" fill="rgb(62.745667%, 7.687378%, 55.839539%)" fill-opacity="1" d="M 339.644531 270.078125 L 696.085938 270.078125 L 696.085938 508.742188 L 339.644531 508.742188 Z M 339.644531 270.078125 "/>
</g>
</g>
<path fill-rule="nonzero" fill="rgb(60.00061%, 82.978821%, 12.547302%)" fill-opacity="1" d="M 446.117188 468.773438 L 452.746094 468.773438 C 457.054688 468.773438 459.945312 468.296875 461.40625 467.328125 C 462.851562 466.371094 463.582031 464.675781 463.582031 462.230469 C 463.582031 459.757812 462.882812 458.042969 461.480469 457.089844 C 460.09375 456.121094 457.171875 455.644531 452.746094 455.644531 L 446.117188 455.644531 Z M 425.460938 504.179688 L 425.460938 439.878906 L 451.929688 439.878906 C 457.769531 439.878906 462.402344 440.21875 465.832031 440.90625 C 469.242188 441.589844 472.105469 442.679688 474.398438 444.199219 C 477.367188 446.210938 479.585938 448.699219 481.046875 451.664062 C 482.492188 454.632812 483.222656 458.164062 483.222656 462.230469 C 483.222656 469.414062 481.089844 474.925781 476.84375 478.757812 C 472.597656 482.585938 466.472656 484.496094 458.46875 484.496094 L 446.117188 484.496094 L 446.117188 504.179688 Z M 491.433594 504.179688 L 491.433594 439.878906 L 512.085938 439.878906 L 512.085938 461.707031 L 531.324219 461.707031 L 531.324219 439.878906 L 551.980469 439.878906 L 551.980469 504.179688 L 531.324219 504.179688 L 531.324219 479.261719 L 512.085938 479.261719 L 512.085938 504.179688 Z M 584.332031 482.183594 L 597.296875 482.183594 L 590.886719 459.921875 Z M 557.789062 504.179688 L 580.410156 439.878906 L 601.320312 439.878906 L 623.925781 504.179688 L 603.449219 504.179688 L 601.050781 495.671875 L 580.574219 495.671875 L 578.085938 504.179688 Z M 650.210938 467.507812 L 659.601562 467.507812 C 662.894531 467.507812 665.15625 467.058594 666.410156 466.179688 C 667.660156 465.285156 668.289062 463.734375 668.289062 461.53125 C 668.289062 459.265625 667.660156 457.6875 666.410156 456.792969 C 665.15625 455.910156 662.714844 455.464844 659.078125 455.464844 L 650.210938 455.464844 Z M 629.824219 504.179688 L 629.824219 439.878906 L 660.597656 439.878906 C 670.238281 439.878906 677.109375 441.324219 681.238281 444.199219 C 685.351562 447.074219 687.40625 451.8125 687.40625 458.386719 C 687.40625 462.320312 686.558594 465.570312 684.875 468.160156 C 683.1875 470.753906 680.582031 472.8125 677.0625 474.316406 C 680.640625 475.074219 683.25 476.566406 684.875 478.800781 C 686.511719 481.023438 687.375 484.285156 687.496094 488.59375 L 687.839844 497.546875 C 687.839844 497.605469 687.851562 497.683594 687.882812 497.757812 C 687.972656 500.320312 688.585938 501.660156 689.714844 501.78125 L 689.714844 504.179688 L 668.898438 504.179688 C 668.527344 502.628906 668.242188 501.289062 668.050781 500.140625 C 667.855469 498.992188 667.765625 498.097656 667.765625 497.457031 L 667.765625 491.035156 C 667.765625 487.726562 667.109375 485.386719 665.796875 484.03125 C 664.488281 482.675781 662.222656 482.003906 658.988281 482.003906 L 650.210938 482.003906 L 650.210938 504.179688 Z M 716.75 504.179688 L 698.0625 504.179688 L 698.0625 439.878906 L 723.214844 439.878906 L 732.113281 471.960938 C 732.230469 472.394531 732.46875 473.390625 732.8125 474.957031 C 733.15625 476.507812 733.660156 478.652344 734.300781 481.394531 C 734.707031 479.234375 735.078125 477.355469 735.433594 475.730469 C 735.777344 474.121094 736.089844 472.914062 736.34375 472.097656 L 745.464844 439.878906 L 770.574219 439.878906 L 770.574219 504.179688 L 751.886719 504.179688 L 752.066406 472.527344 C 752.066406 470.605469 752.066406 468.742188 752.082031 466.925781 C 752.097656 465.105469 752.125 463.214844 752.15625 461.261719 C 751.453125 464.585938 750.605469 468.207031 749.621094 472.140625 L 749.488281 472.707031 L 741.542969 504.179688 L 727.136719 504.179688 L 719.101562 473.40625 C 718.730469 472.003906 718.34375 470.410156 717.96875 468.609375 C 717.597656 466.789062 717.089844 464.347656 716.480469 461.261719 C 716.570312 464.035156 716.644531 466.402344 716.6875 468.386719 C 716.734375 470.367188 716.75 471.945312 716.75 473.140625 Z M 802.925781 482.183594 L 815.890625 482.183594 L 809.484375 459.921875 Z M 776.386719 504.179688 L 799.007812 439.878906 L 819.914062 439.878906 L 842.519531 504.179688 L 822.042969 504.179688 L 819.644531 495.671875 L 799.171875 495.671875 L 796.683594 504.179688 Z M 890.117188 479.25 L 909.683594 479.25 C 909.101562 487.710938 906.121094 494.285156 900.726562 498.964844 C 895.347656 503.628906 888.058594 505.96875 878.867188 505.96875 C 868.554688 505.96875 860.445312 502.941406 854.546875 496.90625 C 848.628906 490.871094 845.679688 482.601562 845.679688 472.082031 C 845.679688 461.605469 848.601562 453.347656 854.457031 447.285156 C 860.3125 441.234375 868.285156 438.207031 878.386719 438.207031 C 887.703125 438.207031 895.019531 440.457031 900.367188 444.960938 C 905.703125 449.445312 908.699219 455.882812 909.339844 464.226562 L 889.566406 464.226562 C 889.265625 460.933594 888.207031 458.460938 886.375 456.777344 C 884.542969 455.105469 881.964844 454.273438 878.640625 454.273438 C 874.589844 454.273438 871.5625 455.75 869.535156 458.699219 C 867.511719 461.664062 866.496094 466.121094 866.496094 472.082031 C 866.496094 477.9375 867.570312 482.363281 869.730469 485.359375 C 871.875 488.351562 875.035156 489.859375 879.207031 489.859375 C 882.398438 489.859375 884.945312 488.933594 886.824219 487.101562 C 888.699219 485.269531 889.804688 482.660156 890.117188 479.25 Z M 935.164062 504.179688 L 935.164062 480.382812 L 911.5 439.878906 L 934.375 439.878906 L 945.476562 461.796875 L 956.652344 439.878906 L 978.917969 439.878906 L 955.820312 480.382812 L 955.820312 504.179688 Z M 935.164062 504.179688 "/>
<path fill-rule="nonzero" fill="rgb(100%, 100%, 100%)" fill-opacity="1" d="M 475.230469 358.101562 L 494.097656 358.101562 C 497.558594 358.101562 500.660156 359.433594 503.394531 362.085938 C 506.128906 364.734375 507.480469 367.875 507.46875 371.492188 C 507.46875 375.207031 506.128906 378.375 503.449219 381.019531 C 500.769531 383.652344 497.585938 384.964844 493.914062 384.964844 L 488.617188 385.019531 C 485.066406 385.035156 483.285156 383.230469 483.269531 379.585938 C 483.269531 375.96875 485.078125 374.160156 488.703125 374.179688 L 492.519531 374.152344 C 495.347656 374.191406 496.75 373.324219 496.714844 371.546875 C 496.714844 369.773438 495.300781 368.886719 492.492188 368.886719 L 480.632812 368.886719 L 480.632812 395.71875 C 480.652344 399.308594 478.84375 401.097656 475.230469 401.097656 C 471.621094 401.117188 469.832031 399.347656 469.851562 395.773438 L 469.851562 363.421875 C 469.867188 359.917969 471.660156 358.136719 475.230469 358.101562 Z M 518.269531 358.101562 L 537.140625 358.101562 C 540.65625 358.101562 543.765625 359.460938 546.476562 362.175781 C 549.183594 364.894531 550.523438 368.003906 550.511719 371.492188 C 550.511719 375.207031 549.832031 378.335938 548.472656 380.890625 C 547.125 383.449219 545.085938 384.769531 542.363281 384.851562 L 548.996094 391.582031 C 550.0625 392.636719 550.585938 394.023438 550.585938 395.75 C 550.53125 399.335938 548.742188 401.117188 545.207031 401.097656 C 543.378906 401.152344 541.582031 400.273438 539.8125 398.464844 L 529.054688 385.128906 C 527.238281 383.210938 526.328125 381.367188 526.3125 379.585938 C 526.3125 375.96875 528.117188 374.160156 531.742188 374.179688 L 535.5625 374.152344 C 538.390625 374.191406 539.792969 373.324219 539.757812 371.546875 C 539.757812 369.773438 538.34375 368.886719 535.535156 368.886719 L 523.675781 368.886719 L 523.675781 395.71875 C 523.695312 399.308594 521.886719 401.097656 518.269531 401.097656 C 514.664062 401.117188 512.875 399.347656 512.894531 395.773438 L 512.894531 363.421875 C 512.910156 359.917969 514.703125 358.136719 518.269531 358.101562 Z M 577.394531 358.101562 C 581.007812 358.101562 584.542969 359.027344 587.976562 360.890625 C 591.40625 362.746094 594.097656 365.398438 596.042969 368.847656 C 597.976562 372.300781 598.953125 375.898438 598.953125 379.640625 C 598.953125 383.367188 598.007812 386.945312 596.117188 390.359375 C 594.226562 393.773438 591.574219 396.425781 588.148438 398.316406 C 584.726562 400.207031 581.136719 401.152344 577.394531 401.152344 C 573.675781 401.152344 570.117188 400.207031 566.691406 398.316406 C 563.269531 396.425781 560.609375 393.773438 558.71875 390.359375 C 556.824219 386.945312 555.882812 383.367188 555.882812 379.640625 C 555.882812 375.898438 556.84375 372.300781 558.765625 368.847656 C 560.679688 365.398438 563.351562 362.746094 566.785156 360.890625 C 570.214844 359.027344 573.75 358.101562 577.394531 358.101562 Z M 577.449219 368.804688 C 575.613281 368.804688 573.851562 369.269531 572.132812 370.1875 C 570.429688 371.113281 569.089844 372.4375 568.113281 374.171875 C 567.152344 375.898438 566.664062 377.703125 566.664062 379.585938 C 566.664062 381.449219 567.140625 383.238281 568.085938 384.9375 C 569.042969 386.644531 570.371094 387.964844 572.078125 388.917969 C 573.796875 389.863281 575.585938 390.34375 577.449219 390.34375 C 579.3125 390.34375 581.101562 389.863281 582.808594 388.917969 C 584.523438 387.964844 585.855469 386.644531 586.800781 384.9375 C 587.753906 383.238281 588.222656 381.449219 588.222656 379.585938 C 588.222656 377.703125 587.746094 375.898438 586.773438 374.171875 C 585.808594 372.4375 584.460938 371.113281 582.746094 370.1875 C 581.019531 369.269531 579.257812 368.804688 577.449219 368.804688 Z M 609.707031 358.101562 L 625.84375 358.101562 C 640.195312 358.121094 647.375 365.296875 647.375 379.613281 C 647.355469 393.902344 640.371094 401.0625 626.402344 401.097656 L 609.707031 401.097656 C 606.121094 401.136719 604.328125 399.347656 604.328125 395.71875 L 604.328125 363.480469 C 604.328125 359.9375 606.121094 358.136719 609.707031 358.101562 Z M 615.113281 368.886719 L 615.113281 390.316406 L 625.898438 390.316406 C 633.027344 390.371094 636.582031 386.773438 636.542969 379.53125 C 636.582031 372.472656 633.019531 368.921875 625.871094 368.886719 Z M 674.238281 358.101562 C 677.851562 358.101562 681.386719 359.027344 684.816406 360.890625 C 688.25 362.746094 690.9375 365.398438 692.882812 368.847656 C 694.820312 372.300781 695.792969 375.898438 695.792969 379.640625 C 695.792969 383.367188 694.851562 386.945312 692.957031 390.359375 C 691.066406 393.773438 688.414062 396.425781 684.992188 398.316406 C 681.570312 400.207031 677.980469 401.152344 674.238281 401.152344 C 670.519531 401.152344 666.957031 400.207031 663.535156 398.316406 C 660.113281 396.425781 657.449219 393.773438 655.558594 390.359375 C 653.667969 386.945312 652.722656 383.367188 652.722656 379.640625 C 652.722656 375.898438 653.6875 372.300781 655.605469 368.847656 C 657.523438 365.398438 660.195312 362.746094 663.625 360.890625 C 667.058594 359.027344 670.59375 358.101562 674.238281 358.101562 Z M 674.292969 368.804688 C 672.457031 368.804688 670.695312 369.269531 668.976562 370.1875 C 667.269531 371.113281 665.929688 372.4375 664.957031 374.171875 C 663.992188 375.898438 663.507812 377.703125 663.507812 379.585938 C 663.507812 381.449219 663.984375 383.238281 664.929688 384.9375 C 665.882812 386.644531 667.214844 387.964844 668.921875 388.917969 C 670.636719 389.863281 672.425781 390.34375 674.292969 390.34375 C 676.15625 390.34375 677.945312 389.863281 679.648438 388.917969 C 681.367188 387.964844 682.695312 386.644531 683.644531 384.9375 C 684.597656 383.238281 685.066406 381.449219 685.066406 379.585938 C 685.066406 377.703125 684.589844 375.898438 683.617188 374.171875 C 682.652344 372.4375 681.304688 371.113281 679.585938 370.1875 C 677.863281 369.269531 676.097656 368.804688 674.292969 368.804688 Z M 722.65625 358.101562 L 733.46875 358.074219 C 736.976562 358.09375 738.753906 359.910156 738.789062 363.507812 C 738.753906 367.058594 736.984375 368.804688 733.488281 368.757812 L 722.710938 368.804688 C 720.875 368.804688 719.113281 369.269531 717.398438 370.1875 C 715.691406 371.113281 714.351562 372.4375 713.378906 374.171875 C 712.414062 375.898438 711.929688 377.703125 711.929688 379.585938 C 711.929688 381.449219 712.40625 383.238281 713.351562 384.9375 C 714.304688 386.644531 715.636719 387.964844 717.34375 388.917969 C 719.058594 389.863281 720.847656 390.34375 722.710938 390.34375 C 724.574219 390.34375 726.457031 389.902344 728.367188 389.011719 C 730.273438 388.121094 731.660156 386.753906 732.523438 384.882812 L 728.035156 384.882812 C 724.410156 384.898438 722.59375 383.148438 722.574219 379.613281 C 722.574219 376.035156 724.367188 374.207031 727.953125 374.152344 L 738.761719 374.207031 C 742.378906 374.28125 744.195312 376.089844 744.214844 379.640625 C 744.214844 383.367188 743.269531 386.945312 741.378906 390.359375 C 739.488281 393.773438 736.835938 396.425781 733.414062 398.316406 C 729.988281 400.207031 726.402344 401.152344 722.65625 401.152344 C 718.941406 401.152344 715.378906 400.207031 711.957031 398.316406 C 708.53125 396.425781 705.871094 393.773438 703.980469 390.359375 C 702.089844 386.945312 701.144531 383.367188 701.144531 379.640625 C 701.144531 375.898438 702.109375 372.300781 704.027344 368.847656 C 705.945312 365.398438 708.613281 362.746094 712.050781 360.890625 C 715.480469 359.027344 719.011719 358.101562 722.65625 358.101562 Z M 755 358.101562 L 773.867188 358.101562 C 777.382812 358.101562 780.496094 359.460938 783.203125 362.175781 C 785.910156 364.894531 787.25 368.003906 787.242188 371.492188 C 787.242188 375.207031 786.5625 378.335938 785.203125 380.890625 C 783.855469 383.449219 781.816406 384.769531 779.089844 384.851562 L 785.726562 391.582031 C 786.789062 392.636719 787.3125 394.023438 787.3125 395.75 C 787.257812 399.335938 785.46875 401.117188 781.933594 401.097656 C 780.109375 401.152344 778.308594 400.273438 776.539062 398.464844 L 765.78125 385.128906 C 763.964844 383.210938 763.058594 381.367188 763.039062 379.585938 C 763.039062 375.96875 764.847656 374.160156 768.472656 374.179688 L 772.289062 374.152344 C 775.117188 374.191406 776.519531 373.324219 776.484375 371.546875 C 776.484375 369.773438 775.070312 368.886719 772.261719 368.886719 L 760.40625 368.886719 L 760.40625 395.71875 C 760.421875 399.308594 758.617188 401.097656 755 401.097656 C 751.394531 401.117188 749.601562 399.347656 749.621094 395.773438 L 749.621094 363.421875 C 749.636719 359.917969 751.429688 358.136719 755 358.101562 Z M 798.042969 401.125 C 797.125 401.125 796.242188 400.898438 795.390625 400.4375 C 794.535156 399.980469 793.875 399.328125 793.390625 398.464844 C 792.902344 397.601562 792.664062 396.703125 792.664062 395.75 C 792.664062 394.8125 795.34375 388.964844 800.703125 378.191406 C 806.0625 367.417969 808.972656 361.609375 809.441406 360.753906 C 809.910156 359.902344 810.570312 359.238281 811.433594 358.761719 C 812.296875 358.285156 813.183594 358.054688 814.121094 358.054688 C 815.050781 358.054688 815.949219 358.285156 816.792969 358.761719 C 817.644531 359.238281 818.308594 359.902344 818.78125 360.753906 C 819.261719 361.609375 822.1875 367.417969 827.574219 378.191406 C 832.964844 388.964844 835.652344 394.8125 835.652344 395.75 C 835.652344 396.703125 835.414062 397.601562 834.925781 398.464844 C 834.449219 399.328125 833.769531 399.980469 832.917969 400.4375 C 832.054688 400.898438 831.171875 401.125 830.28125 401.125 Z M 821.492188 390.289062 L 814.121094 375.152344 L 806.726562 390.289062 Z M 862.496094 358.101562 L 873.28125 358.128906 C 876.839844 358.183594 878.640625 359.964844 878.660156 363.453125 C 878.640625 367.078125 876.832031 368.875 873.253906 368.859375 L 862.523438 368.886719 C 855.367188 368.832031 851.796875 372.410156 851.796875 379.613281 C 851.796875 386.753906 855.375 390.332031 862.550781 390.371094 L 873.253906 390.371094 C 876.832031 390.441406 878.632812 392.214844 878.632812 395.691406 C 878.632812 399.28125 876.851562 401.078125 873.308594 401.097656 L 862.550781 401.097656 C 848.207031 401.097656 841.03125 393.929688 841.011719 379.585938 C 841.011719 365.25 848.171875 358.082031 862.496094 358.101562 Z M 889.386719 358.054688 L 916.597656 358.101562 C 919.949219 358.15625 921.636719 359.902344 921.65625 363.324219 C 921.65625 366.976562 919.835938 368.832031 916.222656 368.886719 L 894.792969 368.886719 L 894.792969 390.316406 L 916.167969 390.316406 C 919.78125 390.332031 921.601562 392.140625 921.601562 395.75 C 921.582031 399.28125 919.800781 401.0625 916.277344 401.097656 L 889.386719 401.097656 C 885.816406 401.097656 884.027344 399.363281 884.007812 395.886719 L 884.007812 363.480469 C 884.027344 359.9375 885.816406 358.121094 889.386719 358.054688 Z M 897.371094 379.722656 C 897.40625 376.136719 899.179688 374.316406 902.695312 374.261719 L 913.503906 374.261719 C 917.085938 374.300781 918.910156 376.097656 918.964844 379.667969 C 918.894531 383.257812 917.074219 385.046875 913.535156 385.046875 L 902.722656 385.046875 C 899.171875 385.066406 897.390625 383.292969 897.371094 379.722656 "/>
</svg>
